<?xml version="1.0" standalone="no"?>
<!DOCTYPE svg PUBLIC "-//W3C//DTD SVG 20010904//EN"
 "http://www.w3.org/TR/2001/REC-SVG-20010904/DTD/svg10.dtd">
<svg version="1.0" xmlns="http://www.w3.org/2000/svg"
 width="64.000000pt" height="64.000000pt" viewBox="0 0 64.000000 64.000000"
 preserveAspectRatio="xMidYMid meet">

<g transform="translate(0.000000,64.000000) scale(0.100000,-0.100000)"
fill="#4a00ff" stroke="black">
<path d="M460 605 c0 -8 -7 -15 -15 -15 -10 0 -15 -10 -15 -30 0 -20 5 -30 15
-30 20 0 19 -16 -1 -24 -12 -4 -15 -14 -11 -34 3 -15 1 -34 -4 -44 -16 -29 0
-48 41 -48 42 0 44 -2 55 -80 4 -25 9 -53 11 -62 5 -16 -2 -18 -46 -18 -40 0
-51 3 -47 13 12 32 19 130 9 123 -6 -3 -14 -32 -18 -62 -4 -36 -13 -62 -25
-72 -11 -9 -19 -22 -19 -28 0 -7 -7 -14 -15 -18 -8 -3 -15 -17 -15 -31 0 -25
0 -25 90 -25 53 0 90 4 90 10 0 6 -33 10 -80 10 -47 0 -80 4 -80 10 0 6 43 10
110 10 67 0 110 -4 110 -10 0 -5 -9 -10 -20 -10 -11 0 -20 -4 -20 -10 0 -5 14
-10 30 -10 25 0 30 4 30 25 0 14 -7 28 -15 31 -8 4 -15 12 -15 20 0 7 -7 17
-16 22 -11 6 -21 35 -29 83 -11 64 -11 76 2 91 9 10 12 22 6 30 -4 7 -8 29 -8
48 0 32 -3 35 -32 38 -25 2 -33 8 -33 23 0 10 -7 19 -15 19 -8 0 -15 5 -15 10
0 6 7 10 15 10 8 0 15 7 15 15 0 8 5 15 10 15 6 0 10 -7 10 -15 0 -8 7 -15 15
-15 8 0 15 -4 15 -10 0 -5 -7 -10 -15 -10 -8 0 -15 -4 -15 -10 0 -5 11 -10 25
-10 21 0 25 5 25 30 0 20 -5 30 -15 30 -8 0 -15 7 -15 15 0 10 -10 15 -30 15
-20 0 -30 -5 -30 -15z m66 -131 c-3 -9 -6 -20 -6 -25 0 -5 -13 -9 -30 -9 -16
0 -30 4 -30 9 0 5 -3 16 -6 25 -5 13 2 16 36 16 34 0 41 -3 36 -16z m14 -64
c0 -5 -22 -10 -50 -10 -27 0 -50 5 -50 10 0 6 23 10 50 10 28 0 50 -4 50 -10z
m30 -220 c0 -6 -33 -10 -80 -10 -47 0 -80 4 -80 10 0 6 33 10 80 10 47 0 80
-4 80 -10z"/>
<path d="M118 519 c-56 -29 -78 -80 -78 -179 0 -47 4 -80 10 -80 6 0 10 34 10
83 0 64 4 89 20 115 11 17 24 32 30 32 14 0 13 -5 -10 -42 -17 -28 -20 -51
-20 -160 0 -79 4 -128 10 -128 6 0 10 49 10 126 0 135 9 169 41 159 22 -7 23
-2 8 27 -16 29 -2 34 20 7 22 -25 28 -11 11 22 -9 16 -7 19 14 19 29 0 76 -19
76 -32 0 -10 -3 -10 -34 2 -16 6 -27 6 -31 0 -4 -6 -2 -10 3 -10 5 0 30 -16
56 -35 48 -37 64 -78 26 -68 -22 6 -28 -12 -7 -20 24 -10 -21 -7 -47 3 -34 13
-55 4 -62 -27 -6 -21 2 -33 50 -77 45 -42 56 -58 56 -84 0 -27 -4 -32 -24 -32
-17 0 -27 9 -36 30 -13 32 -37 56 -46 47 -4 -3 3 -18 15 -33 11 -15 21 -31 21
-35 0 -5 -31 -9 -68 -9 -70 0 -92 -10 -92 -41 0 -9 -7 -19 -15 -23 -17 -6 -21
-56 -5 -56 6 0 10 9 10 20 0 19 7 20 150 20 143 0 150 -1 150 -20 0 -11 5 -20
10 -20 16 0 12 50 -5 56 -8 4 -15 14 -15 24 0 10 -7 23 -15 30 -8 7 -15 28
-15 48 0 30 -8 43 -57 87 -41 38 -54 57 -49 70 4 11 12 15 24 10 46 -18 85
-18 98 0 22 30 17 71 -11 94 -20 15 -24 25 -20 44 5 20 1 27 -28 41 -46 21
-93 20 -139 -5z m190 -421 c3 -16 -8 -18 -117 -18 -94 0 -121 3 -121 13 0 25
14 28 124 25 96 -3 111 -5 114 -20z"/>
</g>
</svg>
